<?xml version="1.0" encoding="UTF-8" standalone="no"?>
<svg width="100px" height="100px" viewBox="0 0 100 100" version="1.1" xmlns="http://www.w3.org/2000/svg" xmlns:xlink="http://www.w3.org/1999/xlink" xmlns:sketch="http://www.bohemiancoding.com/sketch/ns">
    <!-- Generator: Sketch 3.2.2 (9983) - http://www.bohemiancoding.com/sketch -->
    <title>caret-up</title>
    <desc>Created with Sketch.</desc>
    <defs></defs>
    <g id="Icons" stroke="none" stroke-width="1" fill="none" fill-rule="evenodd" sketch:type="MSPage">
        <g id="caret-up" sketch:type="MSArtboardGroup" fill="#000000">
            <path d="M78.8860122,61.1878623 L52.6364617,33.1875213 C51.8950018,32.3958404 51.0161812,32 50,32 C48.9838188,32 48.1049982,32.3958404 47.3628191,33.1875213 L21.1132686,61.1878623 C20.3710895,61.9795431 20,62.9169792 20,64.0001705 C20,65.0833617 20.3710895,66.021565 21.1132686,66.8124787 C21.8561668,67.6041596 22.7349874,68 23.7504495,68 L76.2495505,68 C77.2650126,68 78.1445523,67.6041596 78.8860122,66.8124787 C79.6274721,66.021565 80,65.0833617 80,64.0001705 C80,62.9169792 79.6274721,61.9795431 78.8860122,61.1878623 L78.8860122,61.1878623 Z" id="Shape" sketch:type="MSShapeGroup"></path>
        </g>
    </g>
</svg>